<mxfile host="app.diagrams.net" modified="2023-03-03T19:00:27.649Z" agent="5.0 (Windows NT 10.0; Win64; x64) AppleWebKit/537.36 (KHTML, like Gecko) Chrome/110.0.0.0 Safari/537.36" etag="yjJ7PmPkaPGTqxaCCcom" version="20.8.23" type="github">
  <diagram name="Page-1" id="bXj3Bbf0HL6mkCAVgVnc">
    <mxGraphModel dx="1050" dy="645" grid="1" gridSize="10" guides="1" tooltips="1" connect="1" arrows="1" fold="1" page="1" pageScale="1" pageWidth="850" pageHeight="1100" math="0" shadow="0">
      <root>
        <mxCell id="0" />
        <mxCell id="1" parent="0" />
        <mxCell id="T2V_PlmJqOWzW2fuzzmw-18" style="edgeStyle=orthogonalEdgeStyle;rounded=0;orthogonalLoop=1;jettySize=auto;html=1;entryX=0.5;entryY=0;entryDx=0;entryDy=0;" edge="1" parent="1" source="yKze-RVAeE0_kNcAVgIY-1" target="T2V_PlmJqOWzW2fuzzmw-2">
          <mxGeometry relative="1" as="geometry" />
        </mxCell>
        <mxCell id="T2V_PlmJqOWzW2fuzzmw-19" style="edgeStyle=orthogonalEdgeStyle;rounded=0;orthogonalLoop=1;jettySize=auto;html=1;" edge="1" parent="1" source="yKze-RVAeE0_kNcAVgIY-1" target="yKze-RVAeE0_kNcAVgIY-4">
          <mxGeometry relative="1" as="geometry" />
        </mxCell>
        <mxCell id="T2V_PlmJqOWzW2fuzzmw-22" style="edgeStyle=orthogonalEdgeStyle;rounded=0;orthogonalLoop=1;jettySize=auto;html=1;" edge="1" parent="1" source="yKze-RVAeE0_kNcAVgIY-1" target="yKze-RVAeE0_kNcAVgIY-3">
          <mxGeometry relative="1" as="geometry" />
        </mxCell>
        <mxCell id="T2V_PlmJqOWzW2fuzzmw-23" style="edgeStyle=orthogonalEdgeStyle;rounded=0;orthogonalLoop=1;jettySize=auto;html=1;" edge="1" parent="1" source="yKze-RVAeE0_kNcAVgIY-1" target="yKze-RVAeE0_kNcAVgIY-2">
          <mxGeometry relative="1" as="geometry" />
        </mxCell>
        <mxCell id="T2V_PlmJqOWzW2fuzzmw-24" style="edgeStyle=orthogonalEdgeStyle;rounded=0;orthogonalLoop=1;jettySize=auto;html=1;entryX=0.5;entryY=0;entryDx=0;entryDy=0;" edge="1" parent="1" source="yKze-RVAeE0_kNcAVgIY-1" target="yKze-RVAeE0_kNcAVgIY-5">
          <mxGeometry relative="1" as="geometry" />
        </mxCell>
        <mxCell id="T2V_PlmJqOWzW2fuzzmw-26" style="edgeStyle=orthogonalEdgeStyle;rounded=0;orthogonalLoop=1;jettySize=auto;html=1;entryX=0.5;entryY=0;entryDx=0;entryDy=0;" edge="1" parent="1" source="yKze-RVAeE0_kNcAVgIY-1" target="T2V_PlmJqOWzW2fuzzmw-10">
          <mxGeometry relative="1" as="geometry" />
        </mxCell>
        <mxCell id="yKze-RVAeE0_kNcAVgIY-1" value="AvTech Capital Project" style="rounded=0;whiteSpace=wrap;html=1;fillColor=#dae8fc;strokeColor=#6c8ebf;" parent="1" vertex="1">
          <mxGeometry x="380" y="40" width="120" height="60" as="geometry" />
        </mxCell>
        <mxCell id="yKze-RVAeE0_kNcAVgIY-2" value="Call Management" style="whiteSpace=wrap;html=1;fillColor=#0050ef;fontColor=#ffffff;strokeColor=#001DBC;" parent="1" vertex="1">
          <mxGeometry x="60" y="180" width="100" height="60" as="geometry" />
        </mxCell>
        <mxCell id="yKze-RVAeE0_kNcAVgIY-3" value="Documentation Process" style="whiteSpace=wrap;html=1;fillColor=#0050ef;fontColor=#ffffff;strokeColor=#001DBC;" parent="1" vertex="1">
          <mxGeometry x="190" y="180" width="100" height="60" as="geometry" />
        </mxCell>
        <mxCell id="yKze-RVAeE0_kNcAVgIY-4" value="Guided Funding Path" style="whiteSpace=wrap;html=1;fillColor=#0050ef;fontColor=#ffffff;strokeColor=#001DBC;" parent="1" vertex="1">
          <mxGeometry x="320" y="180" width="100" height="60" as="geometry" />
        </mxCell>
        <mxCell id="yKze-RVAeE0_kNcAVgIY-5" value="Reporting and Data Visualization" style="whiteSpace=wrap;html=1;fillColor=#0050ef;fontColor=#ffffff;strokeColor=#001DBC;" parent="1" vertex="1">
          <mxGeometry x="580" y="180" width="100" height="60" as="geometry" />
        </mxCell>
        <mxCell id="yKze-RVAeE0_kNcAVgIY-10" value="5.1&lt;br&gt;Customizable Reports" style="whiteSpace=wrap;html=1;fillColor=#1ba1e2;fontColor=#ffffff;strokeColor=#006EAF;" parent="1" vertex="1">
          <mxGeometry x="580" y="260" width="100" height="70" as="geometry" />
        </mxCell>
        <mxCell id="yKze-RVAeE0_kNcAVgIY-12" value="5.2&lt;br&gt;Real-Time Dashboards" style="whiteSpace=wrap;html=1;fillColor=#1ba1e2;fontColor=#ffffff;strokeColor=#006EAF;" parent="1" vertex="1">
          <mxGeometry x="580" y="340" width="100" height="60" as="geometry" />
        </mxCell>
        <mxCell id="yKze-RVAeE0_kNcAVgIY-15" value="3.1&lt;br&gt;Standardize Funding Process" style="whiteSpace=wrap;html=1;fillColor=#1ba1e2;fontColor=#ffffff;strokeColor=#006EAF;" parent="1" vertex="1">
          <mxGeometry x="320" y="260" width="100" height="60" as="geometry" />
        </mxCell>
        <mxCell id="yKze-RVAeE0_kNcAVgIY-16" value="3.2&lt;br&gt;Streamline Document Review" style="whiteSpace=wrap;html=1;fillColor=#1ba1e2;fontColor=#ffffff;strokeColor=#006EAF;" parent="1" vertex="1">
          <mxGeometry x="320" y="340" width="100" height="60" as="geometry" />
        </mxCell>
        <mxCell id="yKze-RVAeE0_kNcAVgIY-17" value="3.3&lt;br&gt;Automated Task Assignments" style="whiteSpace=wrap;html=1;fillColor=#1ba1e2;fontColor=#ffffff;strokeColor=#006EAF;" parent="1" vertex="1">
          <mxGeometry x="320" y="415" width="100" height="65" as="geometry" />
        </mxCell>
        <mxCell id="yKze-RVAeE0_kNcAVgIY-18" value="2.1&lt;br&gt;Oversight of Documentation Process" style="whiteSpace=wrap;html=1;fillColor=#1ba1e2;fontColor=#ffffff;strokeColor=#006EAF;" parent="1" vertex="1">
          <mxGeometry x="190" y="250" width="100" height="60" as="geometry" />
        </mxCell>
        <mxCell id="yKze-RVAeE0_kNcAVgIY-19" value="2.2&lt;br&gt;Save Documents to SharePoint" style="whiteSpace=wrap;html=1;fillColor=#1ba1e2;fontColor=#ffffff;strokeColor=#006EAF;" parent="1" vertex="1">
          <mxGeometry x="190" y="330" width="100" height="60" as="geometry" />
        </mxCell>
        <mxCell id="yKze-RVAeE0_kNcAVgIY-21" value="1.1&lt;br&gt;Call Checklist Generation" style="whiteSpace=wrap;html=1;fillColor=#1ba1e2;fontColor=#ffffff;strokeColor=#006EAF;" parent="1" vertex="1">
          <mxGeometry x="60" y="250" width="100" height="60" as="geometry" />
        </mxCell>
        <mxCell id="yKze-RVAeE0_kNcAVgIY-22" value="1.2&lt;br&gt;Starting Call Automation" style="whiteSpace=wrap;html=1;fillColor=#1ba1e2;fontColor=#ffffff;strokeColor=#006EAF;" parent="1" vertex="1">
          <mxGeometry x="60" y="320" width="100" height="60" as="geometry" />
        </mxCell>
        <mxCell id="yKze-RVAeE0_kNcAVgIY-23" value="1.3&lt;br&gt;Generate Deficiency List" style="whiteSpace=wrap;html=1;fillColor=#1ba1e2;fontColor=#ffffff;strokeColor=#006EAF;" parent="1" vertex="1">
          <mxGeometry x="60" y="390" width="100" height="60" as="geometry" />
        </mxCell>
        <mxCell id="g31mylocPvdE1S5H3Zu6-7" value="" style="strokeWidth=2;html=1;shape=mxgraph.flowchart.annotation_1;align=left;pointerEvents=1;" parent="1" vertex="1">
          <mxGeometry x="40" y="210" width="20" height="60" as="geometry" />
        </mxCell>
        <mxCell id="g31mylocPvdE1S5H3Zu6-8" value="" style="strokeWidth=2;html=1;shape=mxgraph.flowchart.annotation_1;align=left;pointerEvents=1;" parent="1" vertex="1">
          <mxGeometry x="40" y="270" width="20" height="80" as="geometry" />
        </mxCell>
        <mxCell id="g31mylocPvdE1S5H3Zu6-10" value="" style="strokeWidth=2;html=1;shape=mxgraph.flowchart.annotation_1;align=left;pointerEvents=1;" parent="1" vertex="1">
          <mxGeometry x="40" y="350" width="20" height="70" as="geometry" />
        </mxCell>
        <mxCell id="g31mylocPvdE1S5H3Zu6-11" value="" style="strokeWidth=2;html=1;shape=mxgraph.flowchart.annotation_1;align=left;pointerEvents=1;" parent="1" vertex="1">
          <mxGeometry x="170" y="210" width="20" height="70" as="geometry" />
        </mxCell>
        <mxCell id="g31mylocPvdE1S5H3Zu6-12" value="" style="strokeWidth=2;html=1;shape=mxgraph.flowchart.annotation_1;align=left;pointerEvents=1;" parent="1" vertex="1">
          <mxGeometry x="170" y="280" width="20" height="80" as="geometry" />
        </mxCell>
        <mxCell id="g31mylocPvdE1S5H3Zu6-14" value="" style="strokeWidth=2;html=1;shape=mxgraph.flowchart.annotation_1;align=left;pointerEvents=1;" parent="1" vertex="1">
          <mxGeometry x="300" y="215" width="20" height="85" as="geometry" />
        </mxCell>
        <mxCell id="g31mylocPvdE1S5H3Zu6-15" value="" style="strokeWidth=2;html=1;shape=mxgraph.flowchart.annotation_1;align=left;pointerEvents=1;" parent="1" vertex="1">
          <mxGeometry x="300" y="300" width="20" height="70" as="geometry" />
        </mxCell>
        <mxCell id="g31mylocPvdE1S5H3Zu6-16" value="" style="strokeWidth=2;html=1;shape=mxgraph.flowchart.annotation_1;align=left;pointerEvents=1;" parent="1" vertex="1">
          <mxGeometry x="300" y="370" width="20" height="80" as="geometry" />
        </mxCell>
        <mxCell id="g31mylocPvdE1S5H3Zu6-17" value="" style="strokeWidth=2;html=1;shape=mxgraph.flowchart.annotation_1;align=left;pointerEvents=1;" parent="1" vertex="1">
          <mxGeometry x="560" y="210" width="20" height="80" as="geometry" />
        </mxCell>
        <mxCell id="g31mylocPvdE1S5H3Zu6-19" value="" style="strokeWidth=2;html=1;shape=mxgraph.flowchart.annotation_1;align=left;pointerEvents=1;" parent="1" vertex="1">
          <mxGeometry x="560" y="290" width="20" height="80" as="geometry" />
        </mxCell>
        <mxCell id="g31mylocPvdE1S5H3Zu6-27" value="2.3&lt;br&gt;Send Closed Deal Email to Accounting" style="whiteSpace=wrap;html=1;fillColor=#1ba1e2;fontColor=#ffffff;strokeColor=#006EAF;" parent="1" vertex="1">
          <mxGeometry x="190" y="410" width="100" height="60" as="geometry" />
        </mxCell>
        <mxCell id="g31mylocPvdE1S5H3Zu6-29" value="5.3&lt;br&gt;Data Analysis Tools" style="whiteSpace=wrap;html=1;fillColor=#1ba1e2;fontColor=#ffffff;strokeColor=#006EAF;" parent="1" vertex="1">
          <mxGeometry x="580" y="420" width="100" height="60" as="geometry" />
        </mxCell>
        <mxCell id="g31mylocPvdE1S5H3Zu6-30" value="" style="strokeWidth=2;html=1;shape=mxgraph.flowchart.annotation_1;align=left;pointerEvents=1;" parent="1" vertex="1">
          <mxGeometry x="560" y="370" width="20" height="80" as="geometry" />
        </mxCell>
        <mxCell id="g31mylocPvdE1S5H3Zu6-31" value="" style="strokeWidth=2;html=1;shape=mxgraph.flowchart.annotation_1;align=left;pointerEvents=1;" parent="1" vertex="1">
          <mxGeometry x="170" y="360" width="20" height="80" as="geometry" />
        </mxCell>
        <mxCell id="T2V_PlmJqOWzW2fuzzmw-2" value="Template Generation" style="whiteSpace=wrap;html=1;fillColor=#0050ef;fontColor=#ffffff;strokeColor=#001DBC;" vertex="1" parent="1">
          <mxGeometry x="450" y="180" width="100" height="60" as="geometry" />
        </mxCell>
        <mxCell id="T2V_PlmJqOWzW2fuzzmw-3" value="4.1&lt;br&gt;Configurable Document Templates" style="whiteSpace=wrap;html=1;fillColor=#1ba1e2;fontColor=#ffffff;strokeColor=#006EAF;" vertex="1" parent="1">
          <mxGeometry x="450" y="260" width="100" height="70" as="geometry" />
        </mxCell>
        <mxCell id="T2V_PlmJqOWzW2fuzzmw-4" value="4.2&lt;br&gt;Dynamic Data Fields" style="whiteSpace=wrap;html=1;fillColor=#1ba1e2;fontColor=#ffffff;strokeColor=#006EAF;" vertex="1" parent="1">
          <mxGeometry x="450" y="350" width="100" height="60" as="geometry" />
        </mxCell>
        <mxCell id="T2V_PlmJqOWzW2fuzzmw-5" value="4.3&lt;br&gt;Document Formatting Tools" style="whiteSpace=wrap;html=1;fillColor=#1ba1e2;fontColor=#ffffff;strokeColor=#006EAF;" vertex="1" parent="1">
          <mxGeometry x="450" y="430" width="100" height="70" as="geometry" />
        </mxCell>
        <mxCell id="T2V_PlmJqOWzW2fuzzmw-6" value="" style="strokeWidth=2;html=1;shape=mxgraph.flowchart.annotation_1;align=left;pointerEvents=1;" vertex="1" parent="1">
          <mxGeometry x="430" y="215" width="20" height="85" as="geometry" />
        </mxCell>
        <mxCell id="T2V_PlmJqOWzW2fuzzmw-7" value="" style="strokeWidth=2;html=1;shape=mxgraph.flowchart.annotation_1;align=left;pointerEvents=1;" vertex="1" parent="1">
          <mxGeometry x="430" y="300" width="20" height="80" as="geometry" />
        </mxCell>
        <mxCell id="T2V_PlmJqOWzW2fuzzmw-8" value="" style="strokeWidth=2;html=1;shape=mxgraph.flowchart.annotation_1;align=left;pointerEvents=1;" vertex="1" parent="1">
          <mxGeometry x="430" y="380" width="20" height="90" as="geometry" />
        </mxCell>
        <mxCell id="T2V_PlmJqOWzW2fuzzmw-10" value="Non-Functional Requirements" style="whiteSpace=wrap;html=1;fillColor=#0050ef;fontColor=#ffffff;strokeColor=#001DBC;" vertex="1" parent="1">
          <mxGeometry x="710" y="180" width="100" height="60" as="geometry" />
        </mxCell>
        <mxCell id="T2V_PlmJqOWzW2fuzzmw-11" value="6.1&lt;br&gt;Large Document Handling" style="whiteSpace=wrap;html=1;fillColor=#1ba1e2;fontColor=#ffffff;strokeColor=#006EAF;" vertex="1" parent="1">
          <mxGeometry x="710" y="260" width="100" height="70" as="geometry" />
        </mxCell>
        <mxCell id="T2V_PlmJqOWzW2fuzzmw-12" value="6.2&lt;br&gt;User Interface&lt;br&gt;Optimization" style="whiteSpace=wrap;html=1;fillColor=#1ba1e2;fontColor=#ffffff;strokeColor=#006EAF;" vertex="1" parent="1">
          <mxGeometry x="710" y="340" width="100" height="60" as="geometry" />
        </mxCell>
        <mxCell id="T2V_PlmJqOWzW2fuzzmw-13" value="" style="strokeWidth=2;html=1;shape=mxgraph.flowchart.annotation_1;align=left;pointerEvents=1;" vertex="1" parent="1">
          <mxGeometry x="690" y="210" width="20" height="80" as="geometry" />
        </mxCell>
        <mxCell id="T2V_PlmJqOWzW2fuzzmw-14" value="" style="strokeWidth=2;html=1;shape=mxgraph.flowchart.annotation_1;align=left;pointerEvents=1;" vertex="1" parent="1">
          <mxGeometry x="690" y="290" width="20" height="80" as="geometry" />
        </mxCell>
        <mxCell id="T2V_PlmJqOWzW2fuzzmw-15" value="6.3&lt;br&gt;System Capacity and Scalability" style="whiteSpace=wrap;html=1;fillColor=#1ba1e2;fontColor=#ffffff;strokeColor=#006EAF;" vertex="1" parent="1">
          <mxGeometry x="710" y="420" width="100" height="60" as="geometry" />
        </mxCell>
        <mxCell id="T2V_PlmJqOWzW2fuzzmw-16" value="" style="strokeWidth=2;html=1;shape=mxgraph.flowchart.annotation_1;align=left;pointerEvents=1;" vertex="1" parent="1">
          <mxGeometry x="690" y="370" width="20" height="80" as="geometry" />
        </mxCell>
        <mxCell id="T2V_PlmJqOWzW2fuzzmw-27" value="2.4&lt;br&gt;Upload Document to SharePoint" style="whiteSpace=wrap;html=1;fillColor=#1ba1e2;fontColor=#ffffff;strokeColor=#006EAF;" vertex="1" parent="1">
          <mxGeometry x="190" y="480" width="100" height="60" as="geometry" />
        </mxCell>
        <mxCell id="T2V_PlmJqOWzW2fuzzmw-28" value="" style="strokeWidth=2;html=1;shape=mxgraph.flowchart.annotation_1;align=left;pointerEvents=1;" vertex="1" parent="1">
          <mxGeometry x="170" y="440" width="20" height="70" as="geometry" />
        </mxCell>
      </root>
    </mxGraphModel>
  </diagram>
</mxfile>
